<?xml version="1.0" encoding="UTF-8" standalone="no"?>
<svg
   xmlns:dc="http://purl.org/dc/elements/1.1/"
   xmlns:cc="http://creativecommons.org/ns#"
   xmlns:rdf="http://www.w3.org/1999/02/22-rdf-syntax-ns#"
   xmlns:svg="http://www.w3.org/2000/svg"
   xmlns="http://www.w3.org/2000/svg"
   xmlns:sodipodi="http://sodipodi.sourceforge.net/DTD/sodipodi-0.dtd"
   xmlns:inkscape="http://www.inkscape.org/namespaces/inkscape"
   version="1.1"
   id="svg2"
   xml:space="preserve"
   width="480"
   height="480"
   viewBox="0 0 480 480"
   sodipodi:docname="CS Logo_2020 Transparent.ai"><metadata
     id="metadata8"><rdf:RDF><cc:Work
         rdf:about=""><dc:format>image/svg+xml</dc:format><dc:type
           rdf:resource="http://purl.org/dc/dcmitype/StillImage" /></cc:Work></rdf:RDF></metadata><defs
     id="defs6"><clipPath
       clipPathUnits="userSpaceOnUse"
       id="clipPath18"><path
         d="M 0,360 H 360 V 0 H 0 Z"
         id="path16" /></clipPath></defs><sodipodi:namedview
     pagecolor="#ffffff"
     bordercolor="#666666"
     borderopacity="1"
     objecttolerance="10"
     gridtolerance="10"
     guidetolerance="10"
     inkscape:pageopacity="0"
     inkscape:pageshadow="2"
     inkscape:window-width="640"
     inkscape:window-height="480"
     id="namedview4" /><g
     id="g10"
     inkscape:groupmode="layer"
     inkscape:label="CS Logo_2020 Transparent"
     transform="matrix(1.3333333,0,0,-1.3333333,0,480)"><g
       id="g12"><g
         id="g14"
         clip-path="url(#clipPath18)"><g
           id="g20"
           transform="translate(179.083,49.543)"><path
             d="m 0,0 c -71.142,0 -128.813,57.672 -128.813,128.813 0,71.142 57.671,128.813 128.813,128.813 71.142,0 128.812,-57.671 128.812,-128.813 C 128.812,57.672 71.142,0 0,0 m 0,303.061 c -94.578,0 -171.248,-76.671 -171.248,-171.249 0,-94.577 76.67,-171.247 171.248,-171.247 94.577,0 171.248,76.67 171.248,171.247 0,94.578 -76.671,171.249 -171.248,171.249"
             style="fill:#ffffff;fill-opacity:1;fill-rule:nonzero;stroke:none"
             id="path22" /></g><g
           id="g24"
           transform="translate(39.6177,226.2681)"><path
             d="m 0,0 c -0.97,0.242 -1.918,0.363 -2.842,0.363 -1.849,0 -3.6,-0.485 -5.232,-1.45 -2.489,-1.454 -4.047,-3.561 -4.768,-6.445 -0.718,-2.874 -0.334,-5.474 1.172,-7.95 1.485,-2.474 3.622,-4.028 6.535,-4.756 3.058,-0.763 5.748,-0.38 8.223,1.176 2.48,1.551 4.009,3.599 4.675,6.262 0.724,2.899 0.344,5.518 -1.159,8.008 C 5.097,-2.331 2.874,-0.718 0,0"
             style="fill:#002d5d;fill-opacity:1;fill-rule:nonzero;stroke:none"
             id="path26" /></g><g
           id="g28"
           transform="translate(93.833,296.395)"><path
             d="m 0,0 -7.615,4.112 2.036,-8.481 z"
             style="fill:#002d5d;fill-opacity:1;fill-rule:nonzero;stroke:none"
             id="path30" /></g><g
           id="g32"
           transform="translate(252.1299,315.8989)"><path
             d="m 0,0 c 0.593,1.197 0.629,2.254 0.111,3.234 -0.548,1.037 -1.73,2.011 -3.513,2.893 L -4.157,6.5 -7.758,-0.779 -6.83,-1.238 C -2.352,-3.453 -0.787,-1.592 0,0"
             style="fill:#002d5d;fill-opacity:1;fill-rule:nonzero;stroke:none"
             id="path34" /></g><g
           id="g36"
           transform="translate(275.1973,296.6162)"><path
             d="m 0,0 c 1.114,-0.03 2.132,0.509 3.026,1.631 v 0 C 3.852,2.666 4.116,3.678 3.835,4.723 3.537,5.828 2.622,6.998 1.113,8.201 L 0.364,8.799 -4.748,2.389 -4.135,1.901 C -2.585,0.664 -1.193,0.024 0,0"
             style="fill:#002d5d;fill-opacity:1;fill-rule:nonzero;stroke:none"
             id="path38" /></g><g
           id="g40"
           transform="translate(228.6201,86.374)"><path
             d="M 0,0 C -8.731,0 -13.739,5.005 -16.355,10.363 -18.81,4.999 -23.668,0 -32.414,0 -41.145,0 -46.153,5.005 -48.77,10.363 -51.223,4.999 -56.081,0 -64.827,0 -73.558,0 -78.566,5.004 -81.183,10.362 -83.636,4.999 -88.495,0 -97.24,0 v 4.544 c 13.007,0 13.633,14.256 13.652,14.863 l 4.537,0.075 c 0.043,-0.605 1.215,-14.938 14.224,-14.938 12.938,0 13.63,14.262 13.653,14.868 l 4.535,0.07 c 0.044,-0.605 1.216,-14.938 14.225,-14.938 13.008,0 13.633,14.256 13.652,14.863 l 4.537,0.075 C -14.181,18.877 -13.009,4.544 0,4.544 Z"
             style="fill:#002d5d;fill-opacity:1;fill-rule:nonzero;stroke:none"
             id="path42" /></g><g
           id="g44"
           transform="translate(213.3965,122.502)"><path
             d="M 0,0 C -8.73,0 -13.739,5.004 -16.355,10.363 -18.809,4.998 -23.667,0 -32.413,0 -41.144,0 -46.152,5.004 -48.769,10.363 -51.223,4.998 -56.081,0 -64.826,0 v 4.543 c 12.938,0 13.629,14.262 13.652,14.869 l 4.536,0.069 c 0.044,-0.604 1.216,-14.938 14.225,-14.938 12.938,0 13.63,14.262 13.653,14.869 l 4.535,0.069 C -14.181,18.877 -13.009,4.543 0,4.543 Z"
             style="fill:#002d5d;fill-opacity:1;fill-rule:nonzero;stroke:none"
             id="path46" /></g><g
           id="g48"
           transform="translate(197.1631,225.1582)"><path
             d="m 0,0 18.325,15.251 -4.846,2.128 3.31,12.768 -11.113,-2.482 -2.011,5.675 -9.812,-10.049 2.601,21.044 -6.503,-3.192 -7.271,13.004 -7.389,-13.004 -6.502,3.192 2.601,-21.044 -9.813,10.049 -2.01,-5.675 -11.113,2.482 3.31,-12.768 -4.847,-2.128 L -34.758,0 -36.649,-6.148 h 16.37 v -9.458 h 4.991 v 9.458 H 1.893 Z"
             style="fill:#002d5d;fill-opacity:1;fill-rule:nonzero;stroke:none"
             id="path50" /></g><g
           id="g52"
           transform="translate(280.7461,215.562)"><path
             d="m 0,0 -2.165,4.786 c -0.62,1.371 -2.52,1.491 -3.308,0.21 l -1.01,-1.642 -190.629,-86.229 -2.811,0.44 c -1.475,0.23 -2.616,-1.268 -2,-2.628 l 2.164,-4.785 c 0.62,-1.371 2.52,-1.491 3.309,-0.21 l 1.01,1.642 L -4.812,-2.188 -2,-2.627 C -0.525,-2.858 0.615,-1.359 0,0"
             style="fill:#002d5d;fill-opacity:1;fill-rule:nonzero;stroke:none"
             id="path54" /></g><g
           id="g56"
           transform="translate(278.7461,133.127)"><path
             d="m 0,0 -2.812,-0.439 -190.628,86.228 -1.01,1.642 c -0.789,1.281 -2.689,1.161 -3.309,-0.21 l -2.164,-4.786 c -0.616,-1.359 0.525,-2.858 2,-2.627 l 2.811,0.44 190.629,-86.228 1.01,-1.643 c 0.788,-1.281 2.688,-1.161 3.308,0.21 L 2,-2.628 C 2.615,-1.268 1.475,0.23 0,0"
             style="fill:#002d5d;fill-opacity:1;fill-rule:nonzero;stroke:none"
             id="path58" /></g><g
           id="g60"
           transform="translate(233.2041,175.0557)"><path
             d="m 0,0 -2.021,1.639 c 1.291,1.77 2.542,2.732 4.88,2.732 2.785,0 4.505,-1.621 4.505,-4.088 0,-2.206 -1.12,-3.316 -3.438,-5.125 L 1.793,-6.5 H 7.495 V -9.006 H -2.19 v 2.298 l 4.356,3.6 c 1.627,1.355 2.263,2.072 2.263,3.164 0,1.112 -0.727,1.715 -1.757,1.715 C 1.663,1.771 0.97,1.205 0,0"
             style="fill:#002d5d;fill-opacity:1;fill-rule:nonzero;stroke:none"
             id="path62" /></g><g
           id="g64"
           transform="translate(250.0605,176.8457)"><path
             d="m 0,0 c -1.739,0 -2.845,-1.753 -2.845,-4.183 0,-2.43 1.142,-4.219 2.881,-4.219 1.738,0 2.842,1.77 2.842,4.182 C 2.878,-1.809 1.738,0 0,0 m 0,-11.021 c -3.499,0 -5.799,2.957 -5.799,6.801 0,3.843 2.339,6.839 5.835,6.839 3.496,0 5.795,-2.958 5.795,-6.802 0,-3.843 -2.335,-6.838 -5.831,-6.838"
             style="fill:#002d5d;fill-opacity:1;fill-rule:nonzero;stroke:none"
             id="path66" /></g><g
           id="g68"
           transform="translate(262.5234,179.3315)"><path
             d="M 0,0 H 1.963 V -13.282 H -0.879 V -2.939 L -3.16,-3.503 -3.76,-1.13 Z"
             style="fill:#002d5d;fill-opacity:1;fill-rule:nonzero;stroke:none"
             id="path70" /></g><g
           id="g72"
           transform="translate(273.5996,177.0332)"><path
             d="m 0,0 c -1.179,0 -1.869,-0.716 -1.869,-1.545 0,-0.942 0.729,-1.639 1.869,-1.639 1.142,0 1.869,0.679 1.869,1.622 C 1.869,-0.734 1.179,0 0,0 m 0,-5.481 c -1.309,0 -2.264,-0.603 -2.264,-1.639 0,-0.943 0.843,-1.659 2.264,-1.659 1.421,0 2.263,0.716 2.263,1.659 0,1.036 -0.954,1.639 -2.263,1.639 m 0,-5.69 c -2.899,0 -5.048,1.507 -5.048,3.823 0,1.621 0.728,2.563 2.112,3.204 -1.008,0.622 -1.663,1.469 -1.663,2.901 0,2.034 1.832,3.637 4.599,3.637 2.769,0 4.599,-1.603 4.599,-3.637 0,-1.432 -0.655,-2.279 -1.663,-2.901 1.327,-0.697 2.114,-1.545 2.114,-3.127 0,-2.468 -2.151,-3.9 -5.05,-3.9"
             style="fill:#002d5d;fill-opacity:1;fill-rule:nonzero;stroke:none"
             id="path74" /></g><g
           id="g76"
           transform="translate(81.7349,166.0879)"><path
             d="M 0,0 V 13.188 H 9.872 V 10.606 H 2.859 V 7.932 H 9.031 V 5.351 H 2.859 V 2.581 H 9.965 V 0 Z"
             style="fill:#002d5d;fill-opacity:1;fill-rule:nonzero;stroke:none"
             id="path78" /></g><g
           id="g80"
           transform="translate(100.4253,165.9004)"><path
             d="m 0,0 c -1.981,0 -3.982,0.696 -5.553,2.109 l 1.702,2.053 c 1.177,-0.978 2.412,-1.6 3.907,-1.6 1.178,0 1.889,0.47 1.889,1.243 v 0.038 c 0,0.734 -0.448,1.111 -2.636,1.677 -2.637,0.678 -4.338,1.413 -4.338,4.031 v 0.037 c 0,2.393 1.907,3.976 4.58,3.976 1.907,0 3.534,-0.602 4.863,-1.676 L 2.917,9.702 c -1.159,0.81 -2.299,1.299 -3.402,1.299 -1.104,0 -1.683,-0.509 -1.683,-1.149 V 9.815 c 0,-0.868 0.561,-1.149 2.824,-1.734 C 3.31,7.384 4.806,6.424 4.806,4.124 V 4.088 C 4.806,1.469 2.823,0 0,0"
             style="fill:#002d5d;fill-opacity:1;fill-rule:nonzero;stroke:none"
             id="path82" /></g><g
           id="g84"
           transform="translate(114.8867,176.6006)"><path
             d="M 0,0 V -10.513 H -2.88 V 0 H -6.862 V 2.675 H 3.982 V 0 Z"
             style="fill:#002d5d;fill-opacity:1;fill-rule:nonzero;stroke:none"
             id="path86" /></g><path
           d="m 120.299,169.103 h 3.029 v -3.015 h -3.029 z"
           style="fill:#002d5d;fill-opacity:1;fill-rule:nonzero;stroke:none"
           id="path88" /><g
           id="g90"
           transform="translate(61.6494,86.7051)"><path
             d="m 0,0 -4.385,-3.364 0.878,-1.148 c 0.833,-1.084 1.64,-1.718 2.396,-1.884 0.783,-0.165 1.481,-0.003 2.129,0.492 0.626,0.48 0.963,1.102 1.031,1.899 0.071,0.779 -0.414,1.87 -1.402,3.157 z"
             style="fill:#002d5d;fill-opacity:1;fill-rule:nonzero;stroke:none"
             id="path92" /></g><g
           id="g94"
           transform="translate(69.1221,92.4326)"><path
             d="m 0,0 -4.176,-3.202 0.248,-0.325 c 0.658,-0.86 1.31,-1.346 1.938,-1.443 0.628,-0.099 1.282,0.127 2.008,0.684 0.696,0.536 1.063,1.101 1.118,1.727 0.055,0.644 -0.217,1.361 -0.807,2.128 z"
             style="fill:#002d5d;fill-opacity:1;fill-rule:nonzero;stroke:none"
             id="path96" /></g><g
           id="g98"
           transform="translate(146.4419,41.2559)"><path
             d="m 0,0 -0.544,0.122 -1.292,-5.718 0.412,-0.093 c 1.418,-0.317 2.53,-0.299 3.313,0.061 0.73,0.338 1.195,0.988 1.424,1.993 0.208,0.921 0.068,1.649 -0.428,2.225 C 2.347,-0.786 1.376,-0.312 0,0"
             style="fill:#002d5d;fill-opacity:1;fill-rule:nonzero;stroke:none"
             id="path100" /></g><g
           id="g102"
           transform="translate(170.7598,28.2949)"><path
             d="M 0,0 4.817,-0.174 2.66,5.329 Z"
             style="fill:#002d5d;fill-opacity:1;fill-rule:nonzero;stroke:none"
             id="path104" /></g><g
           id="g106"
           transform="translate(287.8867,88.7725)"><path
             d="m 0,0 c -2.119,-0.136 -3.838,-1.008 -5.257,-2.667 -1.414,-1.654 -2.013,-3.49 -1.829,-5.617 0.172,-2.118 1.076,-3.849 2.762,-5.293 1.773,-1.516 3.678,-2.147 5.819,-1.946 2.148,0.201 3.826,1.044 5.136,2.575 1.428,1.669 2.034,3.516 1.856,5.651 -0.192,2.148 -1.106,3.896 -2.795,5.34 C 3.98,-0.494 2.119,0.146 0,0"
             style="fill:#002d5d;fill-opacity:1;fill-rule:nonzero;stroke:none"
             id="path108" /></g><g
           id="g110"
           transform="translate(337.6309,164.4902)"><path
             d="m 0,0 -0.569,-0.299 -2.644,4.894 0.583,0.306 c 1.381,0.724 1.935,1.29 2.155,1.637 0.38,0.546 0.583,1.262 0.619,2.151 0.043,1.103 -0.219,1.997 -0.802,2.732 -0.55,0.705 -1.236,1.063 -2.102,1.098 -1.189,0.053 -2.173,-0.849 -3.037,-2.736 L -7.136,6.849 c -1.118,-2.48 -2.468,-4.312 -4.012,-5.441 -1.574,-1.152 -3.482,-1.696 -5.678,-1.605 -2.921,0.116 -5.332,1.205 -7.168,3.235 -1.846,2.04 -2.723,4.546 -2.608,7.448 0.109,2.75 1.033,5.029 2.747,6.771 1.707,1.709 4.063,2.736 7.007,3.053 l 0.604,0.065 1.06,-5.918 -0.717,-0.056 c -2.04,-0.158 -2.953,-0.534 -3.359,-0.822 -1.171,-0.775 -1.761,-1.912 -1.825,-3.487 -0.049,-1.238 0.312,-2.248 1.101,-3.091 0.791,-0.845 1.797,-1.28 3.08,-1.332 0.508,-0.018 0.979,0.031 1.4,0.153 0.409,0.12 0.796,0.319 1.149,0.592 0.368,0.286 0.726,0.671 1.065,1.146 0.352,0.497 0.702,1.102 1.036,1.8 l 1.313,2.832 c 2.006,4.27 4.841,6.37 8.454,6.218 2.431,-0.097 4.455,-1.119 6.013,-3.039 C 5.079,13.476 5.812,11.14 5.705,8.431 5.559,4.748 3.64,1.912 0,0 m -23.968,-69.625 c -0.385,-0.647 -0.937,-1.064 -1.64,-1.241 -0.221,-0.056 -0.44,-0.084 -0.658,-0.084 -0.474,0 -0.938,0.134 -1.387,0.399 h -0.002 c -0.62,0.371 -1.029,0.92 -1.212,1.634 -0.187,0.714 -0.091,1.397 0.282,2.027 0.37,0.627 0.923,1.039 1.641,1.221 0.725,0.181 1.403,0.082 2.029,-0.289 0.637,-0.376 1.055,-0.932 1.239,-1.648 0.183,-0.703 0.084,-1.382 -0.292,-2.019 m -3.133,124.703 c 2.424,3.693 5.838,6.038 10.148,6.97 4.401,0.951 8.525,0.21 12.257,-2.206 C -0.952,57.43 1.431,53.97 2.385,49.557 2.897,47.188 2.892,44.835 2.367,42.564 1.82,40.382 0.66,38.092 -1.083,35.748 l -0.371,-0.499 -4.818,3.252 0.48,0.555 c 2.559,2.955 3.459,5.981 2.752,9.248 -0.637,2.945 -2.142,5.131 -4.6,6.683 -2.426,1.564 -5.067,2.005 -8.078,1.354 -3.099,-0.671 -5.346,-2.285 -6.868,-4.937 -1.396,-2.451 -1.843,-4.901 -1.328,-7.279 0.44,-2.037 1.495,-3.674 3.226,-5.002 1.511,-1.152 3.082,-1.702 4.741,-1.67 l -1.558,7.196 5.423,1.174 2.892,-13.363 -1.603,-0.347 c -1.707,-0.369 -3.318,-0.554 -4.809,-0.554 -0.475,0 -0.938,0.019 -1.388,0.057 -1.767,0.175 -3.518,0.741 -5.212,1.687 l -0.003,0.001 c -3.797,2.14 -6.201,5.439 -7.146,9.802 -0.92,4.251 -0.163,8.279 2.25,11.972 m -11.03,11.089 9.335,30.141 -17.481,-9.694 -2.823,5.088 29.95,16.61 -9.387,-30.17 17.344,9.618 2.822,-5.09 z m -119.5,-172.633 c -67.55,0 -122.309,54.76 -122.309,122.309 0,67.55 54.759,122.31 122.309,122.31 67.55,0 122.31,-54.76 122.31,-122.31 0,-67.549 -54.76,-122.309 -122.31,-122.309 m 117.902,14.849 c -1.98,-2.317 -4.596,-3.727 -7.778,-4.192 -0.596,-0.087 -1.184,-0.129 -1.764,-0.129 -2.852,0 -5.502,1.033 -7.9,3.083 -2.541,2.175 -3.949,5.005 -4.187,8.414 -0.246,3.396 0.752,6.429 2.962,9.016 2.188,2.558 5.02,3.985 8.422,4.243 3.394,0.273 6.435,-0.718 9.013,-2.923 2.593,-2.218 4.023,-5.062 4.252,-8.452 0.232,-3.397 -0.784,-6.446 -3.02,-9.06 m -17.812,-15.787 c -0.907,-2.15 -2.268,-3.93 -4.045,-5.295 -2.22,-1.701 -4.695,-2.559 -7.378,-2.559 -0.551,0 -1.111,0.036 -1.681,0.109 -3.341,0.451 -6.074,2.035 -8.125,4.708 -1.835,2.396 -2.698,5.173 -2.561,8.255 0.178,3.79 1.829,6.908 4.906,9.269 1.689,1.292 3.694,2.093 5.963,2.377 l 0.37,0.045 3.533,-4.609 -1.397,0.064 c -2.378,0.088 -4.371,-0.432 -5.902,-1.606 -1.702,-1.302 -2.636,-2.965 -2.858,-5.083 -0.237,-2.135 0.311,-4.035 1.677,-5.815 1.346,-1.757 3.018,-2.758 5.116,-3.058 2.091,-0.297 3.934,0.187 5.638,1.494 0.867,0.664 1.499,1.37 1.876,2.097 0.244,0.427 0.453,0.896 0.631,1.416 0.187,0.546 0.356,1.163 0.502,1.839 l 0.297,1.377 3.586,-4.678 z m -51.813,-30.947 -8.523,22.304 12.795,4.891 1.607,-4.209 -8.412,-3.214 1.473,-3.852 8.167,3.121 1.607,-4.207 -8.168,-3.122 2.231,-5.83 8.411,3.214 1.607,-4.205 z m -13.542,3.012 c -0.19,-1.35 -0.678,-2.671 -1.449,-3.935 -1.751,-2.837 -4.337,-4.567 -7.686,-5.144 -0.721,-0.125 -1.432,-0.186 -2.131,-0.186 -2.459,0 -4.772,0.768 -6.899,2.297 -2.726,1.969 -4.401,4.651 -4.975,7.971 -0.585,3.391 0.11,6.512 2.062,9.281 1.95,2.78 4.654,4.485 8.037,5.069 1.816,0.312 3.603,0.231 5.315,-0.244 1.641,-0.489 3.341,-1.446 5.063,-2.852 l 0.481,-0.391 -2.788,-3.794 -0.536,0.506 c -2.097,1.987 -4.288,2.755 -6.709,2.33 -2.182,-0.376 -3.833,-1.416 -5.046,-3.178 -1.224,-1.743 -1.628,-3.68 -1.24,-5.926 0.398,-2.31 1.516,-4.018 3.417,-5.226 1.783,-1.125 3.524,-1.521 5.299,-1.212 1.502,0.257 2.729,0.98 3.752,2.21 0.839,1.013 1.287,2.075 1.357,3.224 l -5.407,-0.933 -0.766,4.439 10.43,1.801 0.236,-1.378 c 0.299,-1.722 0.36,-3.313 0.183,-4.729 m -35.22,-11.166 -2.156,5.565 -8.765,0.317 -2.698,-5.39 -5.084,0.184 13.081,25.76 10.762,-26.619 z m -25.259,18.66 c -0.384,-1.698 -1.215,-3.071 -2.47,-4.082 -1.009,-0.812 -2.167,-1.299 -3.45,-1.45 l 4.794,-11.233 -5.619,1.269 -3.969,9.812 -1.918,-8.48 -4.576,1.037 5.269,23.287 4.508,-1.019 c 3.078,-0.696 5.132,-1.777 6.277,-3.304 1.259,-1.689 1.647,-3.652 1.154,-5.837 m -21.383,8.41 -8.324,3.44 -1.573,-3.811 8.079,-3.34 -1.72,-4.161 -8.081,3.339 -2.382,-5.77 8.322,-3.439 -1.721,-4.163 -12.658,5.233 9.119,22.067 12.659,-5.232 z m -34.877,23.64 4.307,-2.765 -3.002,-15.357 12.788,9.073 4.312,-2.769 -23.703,-16.434 z m -9.918,-2.734 -3.069,-3.295 -6.399,5.959 -4.254,-4.571 6.59,-6.135 -3.07,-3.297 -10.023,9.336 16.272,17.471 10.023,-9.334 -3.069,-3.294 -6.59,6.135 -2.81,-3.016 z m -22.687,11.07 c -1.255,-0.962 -2.646,-1.446 -4.146,-1.446 -0.338,0 -0.678,0.024 -1.027,0.073 -1.145,0.149 -2.175,0.539 -3.055,1.159 -0.901,0.677 -1.839,1.652 -2.806,2.913 l -3.522,4.594 18.948,14.528 2.451,-3.195 c 0.958,-1.25 1.609,-2.299 1.992,-3.21 0.401,-0.949 0.568,-1.903 0.498,-2.834 -0.083,-0.944 -0.377,-1.874 -0.874,-2.766 -0.5,-0.9 -1.145,-1.658 -1.916,-2.251 -1.168,-0.895 -2.49,-1.354 -3.919,-1.264 0.178,-1.011 0.099,-2.019 -0.234,-3.007 -0.416,-1.285 -1.221,-2.396 -2.39,-3.294 m -20.872,91.09 c -3.024,-3.226 -6.792,-4.932 -11.202,-5.073 -0.189,-0.007 -0.378,-0.01 -0.565,-0.01 -3.731,0 -7.151,1.209 -10.175,3.599 -3.896,3.094 -5.955,7.248 -6.119,12.347 -0.09,2.791 0.588,5.547 2.016,8.191 l 0.178,0.33 7.115,0.229 -0.859,-1.097 c -1.992,-2.545 -2.96,-5.163 -2.876,-7.784 0.095,-2.917 1.189,-5.271 3.348,-7.199 2.128,-1.925 4.721,-2.843 7.709,-2.753 2.949,0.095 5.436,1.183 7.394,3.233 1.981,2.076 2.898,4.504 2.804,7.424 -0.047,1.486 -0.329,2.749 -0.836,3.753 -0.272,0.596 -0.624,1.198 -1.059,1.812 -0.444,0.628 -0.986,1.298 -1.61,1.992 l -0.935,1.041 7.223,0.233 0.198,-0.325 c 1.595,-2.621 2.452,-5.442 2.547,-8.386 0.143,-4.433 -1.302,-8.322 -4.296,-11.557 m -23.112,52.015 c 1.073,4.293 3.561,7.637 7.396,9.939 3.837,2.314 7.968,2.943 12.272,1.867 4.334,-1.082 7.669,-3.584 9.915,-7.436 2.251,-3.862 2.836,-8.045 1.74,-12.434 -0.972,-3.89 -3.217,-7.087 -6.676,-9.504 -2.648,-1.843 -5.56,-2.767 -8.695,-2.767 -1.407,0 -2.859,0.187 -4.353,0.56 -4.246,1.06 -7.548,3.56 -9.815,7.429 -2.268,3.852 -2.868,8.006 -1.784,12.346 m 19.685,45.92 4.886,-2.628 -3.253,-6.044 22.623,-12.174 -2.758,-5.125 -22.623,12.174 -3.261,-6.062 -4.886,2.629 z m 18.56,24.521 4.307,-3.498 -4.328,-5.328 19.942,-16.196 -3.669,-4.517 -19.941,16.197 -4.34,-5.344 -4.306,3.498 z m 51.475,3.079 -5.021,-3.932 -6.956,3.788 -9.425,-7.38 1.858,-7.781 -4.964,-3.889 -8.51,36.566 z m -0.808,29.744 c 1.726,4.104 4.721,7.051 8.901,8.756 2.245,0.917 4.563,1.319 6.891,1.194 2.243,-0.159 4.699,-0.905 7.311,-2.216 l 0.556,-0.28 -2.368,-5.308 -0.63,0.377 c -3.354,2.006 -6.489,2.368 -9.585,1.108 -2.79,-1.139 -4.682,-2.999 -5.785,-5.688 -1.104,-2.625 -1.08,-5.379 0.067,-8.192 1.198,-2.936 3.178,-4.869 6.052,-5.909 2.656,-0.949 5.147,-0.965 7.401,-0.046 1.929,0.787 3.357,2.11 4.366,4.044 0.872,1.689 1.144,3.319 0.823,4.959 l -6.818,-2.781 -2.096,5.137 12.66,5.164 0.619,-1.518 c 0.87,-2.132 1.396,-4.156 1.566,-6.017 0.132,-1.771 -0.123,-3.593 -0.759,-5.426 -1.451,-4.114 -4.282,-7.053 -8.417,-8.739 -1.957,-0.799 -3.931,-1.198 -5.908,-1.198 -2.092,0 -4.187,0.446 -6.271,1.339 -4.058,1.747 -6.959,4.703 -8.624,8.786 -1.701,4.169 -1.684,8.358 0.048,12.454 m 57.207,19.658 0.74,-5.498 -11.894,-1.603 0.786,-5.838 11.549,1.556 0.741,-5.498 -11.548,-1.557 1.162,-8.625 11.894,1.603 0.741,-5.499 -17.662,-2.38 -4.171,30.959 z m 37.077,-24.006 0.06,0.604 6.009,-0.18 -0.093,-0.713 c -0.264,-2.029 -0.084,-3 0.114,-3.458 0.518,-1.304 1.509,-2.117 3.037,-2.502 1.201,-0.303 2.265,-0.158 3.252,0.441 0.99,0.601 1.624,1.497 1.937,2.74 0.123,0.493 0.17,0.964 0.137,1.403 -0.031,0.425 -0.148,0.844 -0.342,1.246 -0.205,0.419 -0.508,0.849 -0.902,1.277 -0.413,0.448 -0.934,0.913 -1.549,1.385 l -2.501,1.866 c -3.766,2.843 -5.227,6.057 -4.346,9.553 0.595,2.36 2.013,4.13 4.213,5.261 2.173,1.129 4.607,1.366 7.238,0.703 3.574,-0.9 5.954,-3.361 7.076,-7.316 l 0.176,-0.62 -5.332,-1.58 -0.179,0.634 c -0.426,1.5 -0.867,2.158 -1.161,2.446 -0.456,0.483 -1.114,0.829 -1.977,1.047 -1.071,0.269 -1.999,0.197 -2.837,-0.223 l -0.006,-0.002 c -0.799,-0.39 -1.29,-0.988 -1.502,-1.828 -0.288,-1.145 0.383,-2.302 2.053,-3.536 l 2.596,-1.913 c 2.197,-1.605 3.711,-3.303 4.499,-5.046 0.803,-1.776 0.939,-3.757 0.402,-5.887 -0.714,-2.834 -2.275,-4.969 -4.64,-6.349 -1.575,-0.919 -3.261,-1.379 -5.04,-1.379 -0.905,0 -1.835,0.119 -2.785,0.359 -2.67,0.673 -4.709,2.046 -6.061,4.08 -1.322,2.023 -1.841,4.54 -1.546,7.487 m 40.579,10.831 5.172,-2.559 c 2.323,-1.149 3.959,-2.158 5.003,-3.084 1.083,-0.956 1.878,-2.153 2.365,-3.559 0.851,-2.429 0.67,-4.9 -0.54,-7.346 -1.297,-2.621 -3.239,-4.29 -5.774,-4.959 -2.501,-0.662 -5.252,-0.263 -8.177,1.183 l -1.293,0.64 -5.391,-10.897 -5.216,2.581 z m 33.936,-20.208 c 3.201,-2.553 5.066,-5.066 5.542,-7.47 0.521,-2.69 -0.133,-5.202 -1.941,-7.469 -1.41,-1.767 -3.159,-2.9 -5.198,-3.367 -1.732,-0.397 -3.45,-0.273 -5.122,0.367 l -0.725,-16.082 -5.584,4.454 0.937,14.605 -7.484,-9.383 -4.55,3.629 19.478,24.422 z m 25.372,-24.205 -23.497,-20.585 -3.835,4.376 23.497,20.586 z m -124.49,70.995 c -97.274,0 -176.131,-78.857 -176.131,-176.132 0,-97.274 78.857,-176.131 176.131,-176.131 97.275,0 176.131,78.857 176.131,176.131 0,97.275 -78.856,176.132 -176.131,176.132"
             style="fill:#002d5d;fill-opacity:1;fill-rule:nonzero;stroke:none"
             id="path112" /></g></g></g></g></svg>
