<svg xmlns="http://www.w3.org/2000/svg" version="1.1" xmlns:xlink="http://www.w3.org/1999/xlink" xmlns:svgjs="http://svgjs.dev/svgjs" width="1500" height="212" viewBox="0 0 1500 212"><g transform="matrix(1,0,0,1,-0.9090909090909918,-0.22280360377301633)"><svg viewBox="0 0 396 56" data-background-color="#ffffff" preserveAspectRatio="xMidYMid meet" height="212" width="1500" xmlns="http://www.w3.org/2000/svg" xmlns:xlink="http://www.w3.org/1999/xlink"><g id="tight-bounds" transform="matrix(1,0,0,1,0.2400000000000091,0.05885378212872183)"><svg viewBox="0 0 395.52 55.88229243574255" height="55.88229243574255" width="395.52"><g><svg viewBox="0 0 470.4873838084638 66.47429603891591" height="55.88229243574255" width="395.52"><g transform="matrix(1,0,0,1,74.9673838084638,9.187113273106323)"><svg viewBox="0 0 395.52 48.10006949270326" height="48.10006949270326" width="395.52"><g id="textblocktransform"><svg viewBox="0 0 395.52 48.10006949270326" height="48.10006949270326" width="395.52" id="textblock"><g><svg viewBox="0 0 395.52 48.10006949270326" height="48.10006949270326" width="395.52"><g transform="matrix(1,0,0,1,0,0)"><svg width="395.52" viewBox="1.9 -43.35 359.72 43.75" height="48.10006949270326" data-palette-color="#111111"><path d="M9.65 0L1.9 0 1.9-42.95 15-42.95 18.6-16.75 22.2-42.95 35.4-42.95 35.4 0 27.55 0 27.55-30.95 22.6 0 14.9 0 9.65-30.95 9.65 0ZM56.95 0L39.2 0 39.2-42.95 56.4-42.95 56.4-34.65 47.95-34.65 47.95-26.3 56.05-26.3 56.05-18.2 47.95-18.2 47.95-8.35 56.95-8.35 56.95 0ZM68.35 0L59.8 0 59.8-42.95 68.35-42.95 68.35-27.6 72.4-27.6 72.4-42.95 80.95-42.95 80.95 0 72.4 0 72.4-19.5 68.35-19.5 68.35 0ZM93.14 0L84.74 0 84.74-42.95 93.59-42.95 97.54-22.4 97.54-42.95 105.84-42.95 105.84 0 97.44 0 93.14-21.5 93.14 0ZM116.84 0L108.49 0 112.64-42.95 127.19-42.95 131.29 0 123.14 0 122.54-6.95 117.34-6.95 116.84 0ZM119.59-35.65L117.99-13.8 121.89-13.8 119.99-35.65 119.59-35.65ZM151.24 0L132.79 0 132.79-7.8 142.59-35.05 133.74-35.05 133.74-42.95 151.69-42.95 151.69-35.45 141.64-7.9 151.24-7.9 151.24 0ZM178.38 0L169.78 0 169.78-34.7 164.68-34.7 164.68-42.95 183.48-42.95 183.48-34.7 178.38-34.7 178.38 0ZM193.08 0L184.73 0 188.88-42.95 203.43-42.95 207.53 0 199.38 0 198.78-6.95 193.58-6.95 193.08 0ZM195.83-35.65L194.23-13.8 198.13-13.8 196.23-35.65 195.83-35.65ZM210.13 0L210.13-42.95 221.78-42.95Q226.48-42.95 228.6-40.65 230.73-38.35 230.73-33.15L230.73-33.15 230.73-31.25Q230.73-25.1 226.33-23.9L226.33-23.9Q229.03-23.2 230.13-20.65 231.23-18.1 231.23-13.9L231.23-13.9Q231.23-7.05 229.18-3.53 227.13 0 221.78 0L221.78 0 210.13 0ZM218.53-26.8L220.28-26.8Q221.38-26.8 221.78-27.63 222.18-28.45 222.18-29.95L222.18-29.95 222.18-34.25Q222.18-36.35 220.33-36.35L220.33-36.35 218.53-36.35 218.53-26.8ZM219.38-7.55Q222.73-7.55 222.73-10.75L222.73-10.75 222.73-16.1Q222.73-18.05 222.15-19.05 221.58-20.05 220.13-20.05L220.13-20.05 218.53-20.05 218.53-7.6 219.38-7.55ZM241.28 0L232.93 0 237.08-42.95 251.63-42.95 255.73 0 247.58 0 246.98-6.95 241.78-6.95 241.28 0ZM244.03-35.65L242.43-13.8 246.33-13.8 244.43-35.65 244.03-35.65ZM268.52 0.4Q262.67 0.4 260.07-2.5 257.47-5.4 257.47-11.85L257.47-11.85 257.47-16.05 265.92-16.05 265.92-10.7Q265.92-7.5 267.97-7.5L267.97-7.5Q269.12-7.5 269.57-8.18 270.02-8.85 270.02-10.45L270.02-10.45Q270.02-12.55 269.52-13.93 269.02-15.3 268.25-16.23 267.47-17.15 265.47-19.1L265.47-19.1 261.77-22.8Q257.47-27 257.47-32.1L257.47-32.1Q257.47-37.6 260-40.48 262.52-43.35 267.37-43.35L267.37-43.35Q273.17-43.35 275.72-40.28 278.27-37.2 278.27-30.65L278.27-30.65 269.52-30.65 269.47-33.6Q269.47-34.45 269-34.95 268.52-35.45 267.67-35.45L267.67-35.45Q266.67-35.45 266.17-34.9 265.67-34.35 265.67-33.4L265.67-33.4Q265.67-31.3 268.07-29.05L268.07-29.05 273.07-24.25Q274.82-22.55 275.97-21.03 277.12-19.5 277.82-17.43 278.52-15.35 278.52-12.5L278.52-12.5Q278.52-6.15 276.2-2.88 273.87 0.4 268.52 0.4L268.52 0.4ZM291.57 0.4Q285.72 0.4 283.12-2.5 280.52-5.4 280.52-11.85L280.52-11.85 280.52-16.05 288.97-16.05 288.97-10.7Q288.97-7.5 291.02-7.5L291.02-7.5Q292.17-7.5 292.62-8.18 293.07-8.85 293.07-10.45L293.07-10.45Q293.07-12.55 292.57-13.93 292.07-15.3 291.3-16.23 290.52-17.15 288.52-19.1L288.52-19.1 284.82-22.8Q280.52-27 280.52-32.1L280.52-32.1Q280.52-37.6 283.05-40.48 285.57-43.35 290.42-43.35L290.42-43.35Q296.22-43.35 298.77-40.28 301.32-37.2 301.32-30.65L301.32-30.65 292.57-30.65 292.52-33.6Q292.52-34.45 292.05-34.95 291.57-35.45 290.72-35.45L290.72-35.45Q289.72-35.45 289.22-34.9 288.72-34.35 288.72-33.4L288.72-33.4Q288.72-31.3 291.12-29.05L291.12-29.05 296.12-24.25Q297.87-22.55 299.02-21.03 300.17-19.5 300.87-17.43 301.57-15.35 301.57-12.5L301.57-12.5Q301.57-6.15 299.25-2.88 296.92 0.4 291.57 0.4L291.57 0.4ZM314.37 0.4Q309.07 0.4 306.49-2.6 303.92-5.6 303.92-11.5L303.92-11.5 303.92-42.95 312.27-42.95 312.27-11.85Q312.27-9.8 312.67-8.65 313.07-7.5 314.37-7.5L314.37-7.5Q315.67-7.5 316.07-8.63 316.47-9.75 316.47-11.85L316.47-11.85 316.47-42.95 324.82-42.95 324.82-11.5Q324.82-5.6 322.24-2.6 319.67 0.4 314.37 0.4L314.37 0.4ZM335.87 0L328.12 0 328.12-42.95 341.22-42.95 344.82-16.75 348.42-42.95 361.62-42.95 361.62 0 353.77 0 353.77-30.95 348.82 0 341.12 0 335.87-30.95 335.87 0Z" opacity="1" transform="matrix(1,0,0,1,0,0)" fill="#111111" class="wordmark-text-0" data-fill-palette-color="primary" id="text-0"></path></svg></g></svg></g></svg></g></svg></g><g><svg viewBox="0 0 63.61211180290437 66.47429603891591" height="66.47429603891591" width="63.61211180290437"><g><svg xmlns="http://www.w3.org/2000/svg" xmlns:xlink="http://www.w3.org/1999/xlink" version="1.1" x="0" y="0" viewBox="12.516999999999996 10.832 74.96500017839364 78.338" enable-background="new 0 0 100 100" xml:space="preserve" height="66.47429603891591" width="63.61211180290437" class="icon-icon-0" data-fill-palette-color="accent" id="icon-0"><path d="M50.001 10.832c-20.669 0-37.484 16.814-37.484 37.483 0 13.858 7.598 26.531 19.828 33.072 0.226 0.121 0.468 0.178 0.706 0.178 0.536 0 1.054-0.287 1.324-0.793 0.391-0.729 0.115-1.639-0.615-2.028-11.253-6.021-18.243-17.679-18.243-30.428 0-19.015 15.47-34.483 34.484-34.483 19.015 0 34.481 15.469 34.481 34.483 0 12.246-6.584 23.679-17.187 29.837-0.716 0.416-0.959 1.334-0.543 2.052 0.416 0.716 1.334 0.959 2.052 0.543 11.521-6.692 18.678-19.121 18.678-32.432C87.484 27.646 70.669 10.832 50.001 10.832z" fill="#111111" data-fill-palette-color="accent"></path><path d="M56.09 30.611c0.385 0 0.768-0.146 1.061-0.439 0.586-0.586 0.586-1.535 0-2.121l-5.364-5.366c-0.14-0.14-0.308-0.252-0.492-0.328-0.008-0.003-0.017-0.004-0.022-0.007-0.17-0.067-0.354-0.106-0.547-0.106l0 0c-0.195 0-0.378 0.039-0.549 0.106-0.008 0.003-0.015 0.004-0.021 0.007-0.187 0.076-0.354 0.188-0.493 0.328l-5.367 5.366c-0.586 0.585-0.586 1.535 0 2.121 0.292 0.293 0.677 0.439 1.061 0.439 0.384 0 0.768-0.146 1.061-0.439l2.809-2.809v56.036c0 0.828 0.671 1.5 1.5 1.5 0.828 0 1.5-0.672 1.5-1.5V27.364l2.807 2.808C55.322 30.464 55.707 30.611 56.09 30.611z" fill="#111111" data-fill-palette-color="accent"></path><path d="M41.039 43.997c-0.14-0.141-0.308-0.252-0.493-0.328-0.007-0.003-0.015-0.004-0.021-0.007-0.17-0.067-0.354-0.106-0.548-0.106s-0.378 0.039-0.548 0.106c-0.008 0.003-0.015 0.004-0.022 0.007-0.186 0.076-0.353 0.188-0.492 0.328l-5.366 5.366c-0.586 0.585-0.586 1.536 0 2.122 0.293 0.293 0.677 0.438 1.061 0.438 0.384 0 0.768-0.146 1.061-0.438l2.808-2.809 0.002 31.389c0.003 0.051 0.229 5.037-3.371 6.174-0.79 0.25-1.228 1.093-0.979 1.883 0.202 0.64 0.793 1.048 1.43 1.048 0.15 0 0.302-0.022 0.452-0.069 5.792-1.828 5.479-8.896 5.466-9.115V48.676l2.808 2.809c0.293 0.293 0.677 0.438 1.061 0.438 0.384 0 0.768-0.146 1.061-0.438 0.586-0.586 0.586-1.536 0-2.122L41.039 43.997z" fill="#111111" data-fill-palette-color="accent"></path><path d="M66.178 86.238c-3.568-1.127-3.381-5.973-3.369-6.254V55.676l2.809 2.809c0.293 0.293 0.677 0.438 1.061 0.438 0.385 0 0.768-0.146 1.061-0.438 0.587-0.586 0.587-1.535 0-2.121l-5.367-5.368c-0.139-0.14-0.307-0.25-0.49-0.326-0.008-0.003-0.016-0.004-0.023-0.007-0.17-0.067-0.354-0.105-0.547-0.105-0.192 0-0.377 0.038-0.547 0.105-0.008 0.003-0.016 0.004-0.022 0.007-0.185 0.076-0.353 0.187-0.49 0.326l-5.368 5.368c-0.586 0.586-0.586 1.535 0 2.121 0.293 0.293 0.678 0.438 1.061 0.438 0.385 0 0.769-0.146 1.062-0.438l2.808-2.809 0.002 24.227c-0.016 0.302-0.328 7.367 5.463 9.197 0.15 0.047 0.304 0.068 0.453 0.068 0.638 0 1.229-0.408 1.431-1.048C67.406 87.331 66.967 86.488 66.178 86.238z" fill="#111111" data-fill-palette-color="accent"></path></svg></g></svg></g></svg></g><defs></defs></svg><rect width="395.52" height="55.88229243574255" fill="none" stroke="none" visibility="hidden"></rect></g></svg></g></svg>